<svg width="200" height="65" viewBox="0 0 200 65" fill="none" xmlns="http://www.w3.org/2000/svg">
<path d="M35.0471 15.718C32.8702 15.718 31.3227 16.445 29.9575 17.0868C28.7176 17.6694 27.5466 18.2195 25.9677 18.2201C24.3881 18.2195 23.2171 17.6694 21.9772 17.0868C20.612 16.4456 19.064 15.718 16.8876 15.718C10.6234 15.718 5.52789 20.7943 5.52789 27.0335C5.52789 29.8011 6.48572 31.9873 7.41207 34.1014C8.27608 36.0728 9.09198 37.9355 9.19293 40.2702C9.21431 40.7688 9.23331 41.2905 9.25291 41.8299C9.50231 48.6742 9.84375 58.0478 16.2813 58.728C16.3627 58.7363 16.4422 58.741 16.5212 58.741C18.8252 58.741 19.7468 55.5179 20.8139 51.7861C21.9457 47.8278 23.229 43.3412 25.9956 43.2555C28.7052 43.3412 29.9878 47.8278 31.1196 51.7861C32.1867 55.5179 33.1083 58.741 35.4123 58.741C35.4996 58.7458 35.5721 58.7369 35.6534 58.728C42.091 58.0478 42.433 48.6742 42.6818 41.8299C42.7014 41.2905 42.7204 40.7688 42.7418 40.2702C42.8422 37.9355 43.6587 36.0734 44.5227 34.1014C45.449 31.9873 46.4068 29.8011 46.4068 27.0335C46.4068 20.7943 41.3107 15.718 35.0471 15.718ZM42.8808 33.3874C41.9894 35.4222 41.0672 37.5262 40.9526 40.1933C40.9313 40.6954 40.9117 41.2213 40.8921 41.7649C40.6664 47.9567 40.3576 56.4359 35.4646 56.9529L35.4129 56.9559C34.461 56.9559 33.5258 53.6849 32.8429 51.297C31.5436 46.7507 30.0703 41.5981 26.052 41.4715L25.9528 41.4697C25.9481 41.4697 25.8863 41.4709 25.8816 41.4715C21.8644 41.5981 20.3911 46.7507 19.0907 51.2964C18.4084 53.6837 17.4731 56.9529 16.4708 56.9529H16.4696C11.5765 56.4359 11.2677 47.9561 11.0421 41.7649C11.0225 41.2213 11.0029 40.6954 10.9815 40.1933C10.8669 37.5262 9.9447 35.4222 9.05338 33.3874C8.16147 31.3515 7.31885 29.4285 7.31885 27.0335C7.31885 21.778 11.611 17.502 16.8876 17.502C18.6631 17.502 19.9018 18.0841 21.2136 18.6998C22.577 19.3404 23.9867 20.0029 25.9677 20.0035C27.948 20.0029 29.3584 19.3404 30.7218 18.6998C32.0335 18.0841 33.2716 17.502 35.0471 17.502C40.3232 17.502 44.6159 21.7774 44.6159 27.0335C44.6153 29.4285 43.7727 31.3515 42.8808 33.3874Z" fill="#009688"/>
<path d="M22.0497 31.1143C23.2001 31.1143 24.1328 30.1853 24.1328 29.0393C24.1328 27.8933 23.2001 26.9643 22.0497 26.9643C20.8992 26.9643 19.9666 27.8933 19.9666 29.0393C19.9666 30.1853 20.8992 31.1143 22.0497 31.1143Z" fill="#009688"/>
<path d="M30.4017 31.1143C31.5522 31.1143 32.4848 30.1853 32.4848 29.0393C32.4848 27.8933 31.5522 26.9643 30.4017 26.9643C29.2512 26.9643 28.3186 27.8933 28.3186 29.0393C28.3186 30.1853 29.2512 31.1143 30.4017 31.1143Z" fill="#009688"/>
<path d="M28.9154 33.142C28.4694 32.9308 27.9344 33.1195 27.7218 33.5643C27.5632 33.8961 26.9985 34.2327 26.226 34.2327C25.4534 34.2327 24.8887 33.8967 24.7301 33.5649C24.5176 33.1201 23.9837 32.9326 23.536 33.1437C23.0894 33.3555 22.9 33.8878 23.1132 34.3332C23.6025 35.3565 24.8246 36.0178 26.226 36.0178C27.628 36.0178 28.85 35.356 29.3393 34.3321C29.5519 33.8861 29.3619 33.3537 28.9154 33.142Z" fill="#009688"/>
<path d="M53.636 13.1267C49.5238 12.2731 48.9549 11.7065 48.098 7.61032C48.0404 7.33468 47.7964 7.13712 47.5137 7.13712C47.2311 7.13712 46.987 7.33468 46.9294 7.61032C46.0725 11.7065 45.5036 12.2731 41.3915 13.1267C41.1147 13.1841 40.9164 13.4272 40.9164 13.7087C40.9164 13.9903 41.1147 14.2334 41.3915 14.2908C45.5036 15.1443 46.0725 15.711 46.9294 19.8071C46.987 20.0828 47.2311 20.2803 47.5137 20.2803C47.7964 20.2803 48.0404 20.0828 48.098 19.8071C48.9549 15.711 49.5238 15.1443 53.636 14.2908C53.9127 14.2334 54.111 13.9903 54.111 13.7087C54.111 13.4272 53.9127 13.1841 53.636 13.1267ZM47.5137 17.2702C46.8558 15.2709 45.9454 14.3647 43.9383 13.7087C45.9454 13.0533 46.8552 12.1466 47.5137 10.1479C48.1717 12.1471 49.082 13.0533 51.0891 13.7087C49.082 14.3647 48.1717 15.2715 47.5137 17.2702Z" fill="#009688"/>
<path d="M21.2397 11.2711C24.3477 11.9159 24.7349 12.3015 25.3822 15.3975C25.4398 15.6731 25.6838 15.8707 25.9665 15.8707C26.2491 15.8707 26.4932 15.6731 26.5508 15.3975C27.1987 12.3015 27.5858 11.9159 30.6939 11.2711C30.9706 11.2138 31.1689 10.9707 31.1689 10.6891C31.1689 10.4075 30.9706 10.1644 30.6939 10.1071C27.5858 9.46173 27.1987 9.07607 26.5508 5.98014C26.4938 5.70391 26.2497 5.50635 25.9665 5.50635C25.6832 5.50635 25.4398 5.70391 25.3822 5.97955C24.7349 9.07548 24.3477 9.46114 21.2397 10.1065C20.963 10.1638 20.7646 10.4069 20.7646 10.6885C20.7646 10.9701 20.963 11.2138 21.2397 11.2711ZM25.9665 8.35739C26.4368 9.56879 27.0906 10.22 28.3073 10.6891C27.0912 11.1576 26.4374 11.8088 25.9665 13.0202C25.4962 11.8088 24.8424 11.1576 23.6263 10.6891C24.843 10.22 25.4962 9.56879 25.9665 8.35739Z" fill="#009688"/>
<path d="M71.297 22.576C73.9166 22.576 76.0818 24.36 76.7501 26.5434L76.1086 26.783C75.3601 24.8127 73.6761 23.3216 71.297 23.3216C68.6239 23.3216 66.8063 24.8659 66.8063 26.9694C66.8063 28.8599 68.0893 30.1646 70.602 31.1498L72.0188 31.6823C74.7186 32.774 77.2312 33.8657 77.2312 37.1674C77.2312 39.8833 74.5849 41.9336 71.4307 41.9336C68.4368 41.9336 65.8172 40.0963 65.2291 37.3804L65.9776 37.1408C66.6191 39.6437 68.7843 41.188 71.4307 41.188C74.077 41.188 76.4561 39.5105 76.4561 37.1408C76.4561 34.345 74.3443 33.3598 71.992 32.4545L70.3882 31.8155C67.4745 30.6705 66.0311 29.1262 66.0311 26.996C66.0311 24.5198 68.0893 22.576 71.297 22.576ZM95.0607 27.4753C97.2526 27.4753 99.9524 28.8067 99.9524 33.0403V41.5342H99.1772V32.8539C99.1772 29.4723 97.2526 28.1942 95.1141 28.1942C92.2539 28.1942 90.6501 30.5108 90.2491 32.9604V41.5342H89.5007V32.8539C89.5007 29.4723 87.4157 28.1942 85.3307 28.1942C82.3636 28.1942 80.8934 30.9368 80.5726 32.9604V41.5342H79.8241V27.6883H80.5726V31.4427C80.7597 30.2179 82.123 27.4753 85.3307 27.4753C87.0682 27.4753 89.4205 28.4871 90.0887 31.3096C90.6501 29.3924 92.4143 27.4753 95.0607 27.4753ZM103.561 22.7092V23.5612H102.813V22.7092H103.561ZM103.561 27.6883V41.5342H102.813V27.6883H103.561ZM107.624 22.7092V41.5342H106.876V22.7092H107.624ZM117.194 27.4487C120.348 27.4487 124.411 29.8717 124.09 34.9574H110.992C111.179 39.0845 114.387 41.0815 117.461 41.0815C119.519 41.0815 121.23 40.4425 122.326 39.0046L122.887 39.4307C121.604 41.1348 119.706 41.8004 117.488 41.8004C113.852 41.8004 110.217 39.3774 110.217 34.6113C110.217 29.8717 114.039 27.4487 117.194 27.4487ZM117.194 28.1676C114.547 28.1676 111.206 30.138 110.992 34.2385H123.342C123.315 30.138 119.84 28.1676 117.194 28.1676Z" fill="black"/>
<path d="M144.259 39.5571C142.613 41.0383 140.409 41.8054 137.939 41.8054C132.735 41.8054 128.247 37.9172 128.247 32.2833C128.247 26.6494 132.735 22.7612 137.939 22.7612C140.382 22.7612 142.56 23.5547 144.153 24.9566L141.816 27.5751C140.834 26.8874 139.506 26.3849 138.152 26.3849C134.806 26.3849 132.283 28.8447 132.283 32.2833C132.283 35.7218 134.806 38.1817 138.152 38.1817C139.559 38.1817 140.94 37.6527 141.949 36.8592L144.259 39.5571ZM155.146 27.5751C155.491 27.5751 155.81 27.5751 156.155 27.6545V31.2782C155.836 31.1988 155.518 31.1988 155.252 31.1988C152.703 31.1988 150.605 33.0239 150.366 35.6689V41.5409H146.569V27.7867H150.366V31.2253C150.977 29.1357 152.65 27.5751 155.146 27.5751ZM168.529 27.7867H172.326V41.5409H168.529V39.848C168.449 40.4035 167.095 41.8054 164.705 41.8054C161.545 41.8054 157.881 39.5306 157.881 34.6373C157.881 29.9028 161.545 27.5487 164.705 27.5487C167.095 27.5487 168.449 29.0299 168.529 29.3208V27.7867ZM165.236 38.4462C167.095 38.4462 168.715 37.1766 168.715 34.6373C168.715 32.1775 167.095 30.9079 165.236 30.9079C163.325 30.9079 161.572 32.2039 161.572 34.6373C161.572 37.1501 163.325 38.4462 165.236 38.4462ZM181.248 25.6972C180 25.6972 179.868 26.7287 179.868 27.2577V27.7867H182.948V30.9079H179.868V41.5409H176.07V30.9079H174.238V27.7867H176.07V27.2577C176.07 23.1315 179.097 22.576 180.797 22.576C182.098 22.576 183.346 22.867 184.302 23.4753L183.001 26.0939C182.257 25.803 181.912 25.6972 181.248 25.6972ZM192.64 38.3668C193.357 38.3668 193.888 38.2875 194.472 38.0759V41.2499C193.888 41.5144 192.985 41.6996 191.657 41.6996C189.507 41.6996 187.701 40.959 187.701 37.0708V30.9079H185.762V27.7867H187.701V24.5598H191.498V27.7867H194.446V30.9079H191.498V37.0443C191.498 37.6791 191.684 38.3668 192.64 38.3668Z" fill="black"/>
</svg>
